# xmcd
#
# Track frame offsets: 
#        150
#        1060
#        17353
#        35829
#        50604
#        69917
#        86555
#        103591
#        122251
#        137383
#        155042
#        171180
#        183815
#        202303
#        219389
#        233026
#        243566
#
# Disc length: 3457 seconds
#
# Revision: 5
# Processed by: cddbd v1.4PL0 Copyright (c) Steve Scherf et al.
# Submitted via: ExactAudioCopy v0.90b4
#
DISCID=da0d7f11
DTITLE=Gatinha Manhosa - Uma Historia de Amor
DYEAR=2002
DGENRE=Forró
TTITLE0=Abertura
TTITLE1=Só O Amor Me Faz
TTITLE2=Adeus Nunca Mais
TTITLE3=Leilão
TTITLE4=Sai De Mim Tristeza
TTITLE5=História De Amor
TTITLE6=Foi Por Amor
TTITLE7=Sei Que Vai Ser Assim
TTITLE8=Mudei
TTITLE9=Não É O Fim
TTITLE10=Deus O Que Fazer
TTITLE11=Um Pedaço De Mim
TTITLE12=Nosso Amanhã
TTITLE13=Sai Solidão
TTITLE14=Dor E Saudade
TTITLE15=Amor Fingido
TTITLE16=Lembrando Você
EXTD=
EXTT0=
EXTT1=
EXTT2=
EXTT3=
EXTT4=
EXTT5=
EXTT6=
EXTT7=
EXTT8=
EXTT9=
EXTT10=
EXTT11=
EXTT12=
EXTT13=
EXTT14=
EXTT15=
EXTT16=
PLAYORDER=
